HIERARCHY
ROOT root
{
	OFFSET	0	13.1	24.9
	CHANNELS 6  Xposition Yposition Zposition Xrotation Yrotation Zrotation
	JOINT spine_1
	{
		OFFSET	0	9.99999	0
		CHANNELS 3  Xrotation Yrotation Zrotation
		JOINT spine_2
		{
			OFFSET	0	112	-10
			CHANNELS 3  Xrotation Yrotation Zrotation
			JOINT spine_3
			{
				OFFSET	0	206.5	19.3
				CHANNELS 3  Xrotation Yrotation Zrotation
				JOINT spine_4
				{
					OFFSET	0	110.4	14.6
					CHANNELS 3  Xrotation Yrotation Zrotation
					JOINT neck_1
					{
						OFFSET	0	71.8	-50.3
						CHANNELS 3  Xrotation Yrotation Zrotation
						JOINT neck_2
						{
							OFFSET	0	86.2	-25.8
							CHANNELS 3  Xrotation Yrotation Zrotation
							JOINT head_ee
							{
								OFFSET	0	179.8	-8.7
								CHANNELS 3  Xrotation Yrotation Zrotation
								End Site
								{
									OFFSET	1	0	0
								}
							}
						}
					}
					JOINT left_clavicle
					{
						OFFSET	-43.2	22.4	-70.8
						CHANNELS 3  Xrotation Yrotation Zrotation
						JOINT left_shoulder
						{
							OFFSET	-93.9	-5.79999	48.7
							CHANNELS 3  Xrotation Yrotation Zrotation
							JOINT left_elbow
							{
								OFFSET	-291.4	-30.8	15.2
								CHANNELS 3  Xrotation Yrotation Zrotation
								JOINT left_lowarm_twist
								{
									OFFSET	-110.7	-3.89999	13.6
									CHANNELS 3  Xrotation Yrotation Zrotation
									JOINT left_hand
									{
										OFFSET	-110.7	-3.89999	13.6
										CHANNELS 3  Xrotation Yrotation Zrotation
										JOINT left_ee
										{
											OFFSET	-80.8	-5.10001	12.1
											CHANNELS 3  Xrotation Yrotation Zrotation
											End Site
											{
												OFFSET	1	0	0
											}
										}
									}
								}
							}
						}
					}
					JOINT right_clavicle
					{
						OFFSET	43.2	22.4	-70.8
						CHANNELS 3  Xrotation Yrotation Zrotation
						JOINT right_shoulder
						{
							OFFSET	93.9	-5.79999	48.7
							CHANNELS 3  Xrotation Yrotation Zrotation
							JOINT right_elbow
							{
								OFFSET	291.4	-30.8	15.2
								CHANNELS 3  Xrotation Yrotation Zrotation
								JOINT right_lowarm_twist
								{
									OFFSET	110.7	-3.89999	13.6
									CHANNELS 3  Xrotation Yrotation Zrotation
									JOINT right_hand
									{
										OFFSET	110.7	-3.89999	13.6
										CHANNELS 3  Xrotation Yrotation Zrotation
										JOINT right_ee
										{
											OFFSET	80.8	-5.10001	12.1
											CHANNELS 3  Xrotation Yrotation Zrotation
											End Site
											{
												OFFSET	1	0	0
											}
										}
									}
								}
							}
						}
					}
				}
			}
		}
	}
	JOINT left_hip
	{
		OFFSET	-82.8	-127.5	0.300001
		CHANNELS 3  Xrotation Yrotation Zrotation
		JOINT left_knee
		{
			OFFSET	-28.2	-396.7	2.2
			CHANNELS 3  Xrotation Yrotation Zrotation
			JOINT left_ankle
			{
				OFFSET	-11.7	-411.3	35.4
				CHANNELS 3  Xrotation Yrotation Zrotation
				JOINT left_toes
				{
					OFFSET	0	-60	-88.6
					CHANNELS 3  Xrotation Yrotation Zrotation
					JOINT left_foot_ee
					{
						OFFSET	-22.5	-16.5	-42.2
						CHANNELS 3  Xrotation Yrotation Zrotation
						End Site
						{
							OFFSET	1	0	0
						}
					}
				}
			}
		}
	}
	JOINT right_hip
	{
		OFFSET	82.8	-127.5	0.300001
		CHANNELS 3  Xrotation Yrotation Zrotation
		JOINT right_knee
		{
			OFFSET	28.2	-396.7	2.2
			CHANNELS 3  Xrotation Yrotation Zrotation
			JOINT right_ankle
			{
				OFFSET	11.7	-411.3	35.4
				CHANNELS 3  Xrotation Yrotation Zrotation
				JOINT right_toes
				{
					OFFSET	0	-60	-88.6
					CHANNELS 3  Xrotation Yrotation Zrotation
					JOINT right_foot_ee
					{
						OFFSET	22.5	-16.5	-42.2
						CHANNELS 3  Xrotation Yrotation Zrotation
						End Site
						{
							OFFSET	1	0	0
						}
					}
				}
			}
		}
	}
}
MOTION
Frames: 16
Frame Time: 0.02
856.452313038 596.72 -1623.06690879 34.9844164943 83.6736862095 -30.7422164594 1.84726 -0.717133 -1.95445 1.84919 -0.591339 -1.9961 1.87007 -0.226482 -2.06946 1.86452 -0.550407 -2.00777 -14.6889 4.14587 2.74074 -14.6996 6.28128 3.94193 -0.0 0.0 -0.0 9.82574 11.1295 18.4089 -3.14399 -3.28976 67.6201 1.06774 -27.8747 0.264984 8.80992 0.226089 -1.10156 5.25141 21.9306 44.5629 -0.0 0.0 -0.0 7.22668 -11.7598 -13.6971 -16.7208 -2.28647 -59.0662 0.238916 6.74982 -0.0140893 -55.0997 4.68039 -4.92268 -1.12799 5.24185 9.87373 0.0 0.0 0.0 4.85017 -3.96886 0.519868 -10.7741 0.291509 1.62535 31.3851 25.2005 -4.27074 -15.931 0.0 0.0 -0.0 0.0 -0.0 -7.68881 8.59482 4.72542 -25.7335 -0.183699 -3.9117 36.2617 -2.94603 4.5235 -31.2778 0.0 0.0 0.0 0.0 0.0 
849.779760478 599.281 -1628.11461609 25.6985805801 81.8127913658 -21.32038901 1.80581 -0.632938 -2.00394 1.80791 -0.504166 -2.04014 1.82612 -0.131193 -2.09739 1.82027 -0.46072 -2.05038 -15.1272 4.17098 3.60549 -15.1194 5.8462 4.78974 -0.0 0.0 -0.0 10.0013 9.5223 18.9125 -1.87627 -3.62741 67.5275 1.09191 -28.4081 0.276385 10.0558 0.244299 -1.25967 5.31105 23.1372 45.2345 -0.0 0.0 -0.0 6.99631 -13.9343 -13.1773 -17.4364 -2.0134 -58.9232 0.350299 9.84458 -0.0301686 -55.221 4.69511 -4.92773 -1.20569 5.40228 10.4765 0.0 0.0 0.0 4.24498 -4.64239 0.395399 -9.83045 0.278254 1.48116 28.3409 25.5488 -3.92606 -15.8232 0.0 0.0 -0.0 0.0 -0.0 -5.82673 7.33891 4.37287 -26.0078 -0.176158 -3.95313 34.8033 -3.42609 4.3824 -32.7026 0.0 0.0 0.0 0.0 0.0 
840.56044549 602.622 -1631.31305166 11.6481135336 81.0289524629 -7.18740564312 2.22989 -0.528568 -2.11422 2.23229 -0.392995 -2.14355 2.24689 -0.019251 -2.17917 2.24045 -0.363089 -2.14881 -16.1565 3.96275 3.10668 -16.1615 5.81447 4.3066 -0.0 0.0 -0.0 10.7649 7.5567 20.5917 0.144883 -3.00892 66.3229 1.12423 -29.113 0.291938 10.3659 0.248296 -1.29907 5.21924 22.5937 44.3657 -0.0 0.0 -0.0 6.73022 -16.0374 -12.6101 -17.9438 -2.73198 -58.8483 0.325131 9.14971 -0.0260159 -55.0053 4.66894 -4.91874 -1.14422 5.13482 9.93776 0.0 0.0 0.0 4.09721 -4.71401 -0.0816355 -6.81437 0.219996 1.02205 28.218 25.154 -3.90221 -16.9607 0.0 0.0 -0.0 0.0 -0.0 1.02654 8.52102 4.2882 -26.0909 -0.173834 -3.96567 36.3405 -3.05809 4.53054 -33.0089 0.0 0.0 0.0 0.0 0.0 
828.709786488 603.069 -1632.23476555 6.38914499652 81.7298340752 -1.89326971561 2.27645 -0.263498 -2.20213 2.27914 -0.122872 -2.21442 2.28359 0.257821 -2.2028 2.27683 -0.0932177 -2.21587 -17.3912 4.73123 4.7793 -17.371 6.45012 6.22299 -0.0 0.0 -0.0 10.9446 5.17601 21.1991 2.6126 -3.5558 65.9336 1.24249 -31.6108 0.351729 12.708 0.271589 -1.5973 5.21713 22.5074 44.3368 -0.0 0.0 -0.0 6.54994 -19.3254 -12.1138 -18.6329 -2.84391 -58.6697 0.472117 13.1635 -0.054474 -55.1174 4.68253 -4.92342 -1.06966 5.51556 9.5948 0.0 0.0 0.0 3.88189 -5.03177 -0.327479 -6.0531 0.201476 0.906694 25.4801 25.4263 -3.57641 -17.8686 0.0 0.0 -0.0 0.0 -0.0 4.57808 7.01612 1.822 -20.2167 -0.293 -3.07251 36.0447 -1.4698 4.50953 -33.1514 0.0 0.0 0.0 0.0 0.0 
818.336967768 603.059 -1632.68376798 3.06928353819 82.825004123 1.68232655436 2.33173 -0.193138 -2.3597 2.33483 -0.0426357 -2.3672 2.33615 0.360954 -2.33993 2.32851 -0.0130158 -2.36755 -17.4867 6.12709 5.70637 -17.4754 8.63392 7.6152 -0.0 0.0 -0.0 10.6092 3.19425 20.6987 1.99001 -4.35972 67.0015 1.37705 -34.298 0.424944 17.6804 0.280553 -2.23214 5.29892 22.3802 45.0397 -0.0 0.0 -0.0 6.83829 -22.042 -12.34 -20.048 -1.43999 -57.5943 0.563063 15.5853 -0.0770568 -55.3445 4.71011 -4.93282 -1.42099 5.72878 12.1012 0.0 0.0 0.0 3.3168 -5.02418 -0.997595 -5.40812 0.184586 0.809155 24.4756 27.1033 -3.48735 -18.1542 0.0 0.0 -0.0 0.0 -0.0 3.80291 3.52394 1.17532 -9.13059 -0.266892 -1.37437 27.0457 0.127053 3.58764 -33.5746 0.0 0.0 0.0 0.0 0.0 
813.091651428 603.534 -1632.03980083 4.71822165701 83.0423005577 -0.152841449755 2.25104 -0.174799 -2.26216 2.25388 -0.0305357 -2.26869 2.25474 0.359285 -2.24028 2.24774 0.00106038 -2.26889 -18.99 6.00684 5.56851 -18.9956 8.64767 7.57724 -0.0 0.0 -0.0 10.387 1.5156 20.366 2.03505 -4.69448 67.7443 1.42727 -35.2592 0.453588 18.6084 0.276124 -2.35059 4.87597 21.6869 41.3279 -0.0 0.0 -0.0 7.17206 -22.3878 -12.7988 -21.212 -0.241747 -57.4769 0.602523 16.619 -0.0880017 -55.6387 4.74588 -4.94484 -1.67291 5.59024 13.7825 0.0 0.0 0.0 2.95572 -4.77613 -0.880411 -5.64105 0.190813 0.844359 25.1843 25.0294 -3.53159 -18.7499 0.0 0.0 -0.0 0.0 -0.0 3.54667 2.36767 0.843785 -5.15186 -0.177571 -0.770452 23.8184 2.71976 3.23669 -31.2944 0.0 0.0 0.0 0.0 0.0 
810.264552507 605.458 -1628.82872369 3.38089089888 83.7835061634 0.971815161847 2.06142 -0.181677 -2.16153 2.06402 -0.0437978 -2.1687 2.0655 0.336118 -2.14296 2.05909 -0.00645721 -2.16913 -19.9509 6.00814 5.52369 -19.9691 8.77723 7.62759 -0.0 0.0 -0.0 10.3561 1.26532 20.3185 1.92811 -5.11999 68.3519 1.51132 -36.8184 0.503046 20.017 0.265738 -2.53021 5.04144 21.3597 42.6663 -0.0 0.0 -0.0 7.31874 -22.5451 -12.9983 -20.796 -0.45625 -57.4944 0.66266 18.1731 -0.105983 -55.6648 4.74906 -4.94589 -1.65978 5.7781 13.7755 0.0 0.0 0.0 2.8943 -5.1514 -0.726389 -5.77461 0.194318 0.864556 26.1605 24.5826 -3.64226 -19.4791 0.0 0.0 -0.0 0.0 -0.0 4.00646 1.72352 0.314477 -1.40823 -0.0554173 -0.209003 20.504 1.19417 2.82223 -31.5979 0.0 0.0 0.0 0.0 0.0 
808.864010898 605.635 -1628.03890633 1.09357007199 84.8620312671 3.17432886131 1.9504 -0.238885 -2.12172 1.9529 -0.103422 -2.13262 1.95668 0.275081 -2.11734 1.95043 -0.0626859 -2.1342 -18.0335 7.80347 5.28422 -18.1277 12.1552 7.92649 -0.0 0.0 -0.0 10.3452 0.615523 20.3352 1.48811 -5.23056 68.2513 1.56759 -37.828 0.537165 20.8773 0.257223 -2.63976 4.99037 20.5023 42.0968 -0.0 0.0 -0.0 7.8945 -23.6425 -13.7121 -21.2273 1.49439 -56.5212 0.707118 19.3047 -0.120266 -55.7817 4.7633 -4.95061 -1.86037 5.65971 15.1192 0.0 0.0 0.0 2.92448 -5.66297 -0.987048 -5.78852 0.19468 0.86666 24.0054 26.0198 -3.40445 -19.2219 0.0 0.0 -0.0 0.0 -0.0 4.17607 2.05391 -0.326046 2.08032 0.0912402 0.306164 16.0238 6.03612 2.28913 -29.968 0.0 0.0 0.0 0.0 0.0 
808.709626981 605.635 -1628.70333703 1.05990603477 84.6984019819 3.20813304864 1.9504 -0.238885 -2.12172 1.9529 -0.103422 -2.13262 1.95668 0.275081 -2.11734 1.95043 -0.0626859 -2.1342 -18.0335 7.80347 5.28422 -18.1277 12.1552 7.92649 -0.0 0.0 -0.0 10.3452 0.615523 20.3352 1.48811 -5.23056 68.2513 1.56759 -37.828 0.537165 20.8773 0.257223 -2.63976 4.99037 20.5023 42.0968 -0.0 0.0 -0.0 7.8945 -23.6425 -13.7121 -21.2273 1.49439 -56.5212 0.707118 19.3047 -0.120266 -55.7817 4.7633 -4.95061 -1.86037 5.65971 15.1192 0.0 0.0 0.0 2.92448 -5.66297 -0.987048 -5.78852 0.19468 0.86666 24.0054 26.0198 -3.40445 -19.2219 0.0 0.0 -0.0 0.0 -0.0 4.17607 2.05391 -0.326046 2.08032 0.0912402 0.306164 16.0238 6.03612 2.28913 -29.968 0.0 0.0 0.0 0.0 0.0 
808.618609665 605.635 -1629.09914208 1.04083322973 84.6009776288 3.22728930666 1.9504 -0.238885 -2.12172 1.9529 -0.103422 -2.13262 1.95668 0.275081 -2.11734 1.95043 -0.0626859 -2.1342 -18.0335 7.80347 5.28422 -18.1277 12.1552 7.92649 -0.0 0.0 -0.0 10.3452 0.615523 20.3352 1.48811 -5.23056 68.2513 1.56759 -37.828 0.537165 20.8773 0.257223 -2.63976 4.99037 20.5023 42.0968 -0.0 0.0 -0.0 7.8945 -23.6425 -13.7121 -21.2273 1.49439 -56.5212 0.707118 19.3047 -0.120266 -55.7817 4.7633 -4.95061 -1.86037 5.65971 15.1192 0.0 0.0 0.0 2.92448 -5.66297 -0.987048 -5.78852 0.19468 0.86666 24.0054 26.0198 -3.40445 -19.2219 0.0 0.0 -0.0 0.0 -0.0 4.17607 2.05391 -0.326046 2.08032 0.0912402 0.306164 16.0238 6.03612 2.28913 -29.968 0.0 0.0 0.0 0.0 0.0 
808.683267485 605.635 -1628.81764946 1.05432513215 84.6702610081 3.21373805598 1.9504 -0.238885 -2.12172 1.9529 -0.103422 -2.13262 1.95668 0.275081 -2.11734 1.95043 -0.0626859 -2.1342 -18.0335 7.80347 5.28422 -18.1277 12.1552 7.92649 -0.0 0.0 -0.0 10.3452 0.615523 20.3352 1.48811 -5.23056 68.2513 1.56759 -37.828 0.537165 20.8773 0.257223 -2.63976 4.99037 20.5023 42.0968 -0.0 0.0 -0.0 7.8945 -23.6425 -13.7121 -21.2273 1.49439 -56.5212 0.707118 19.3047 -0.120266 -55.7817 4.7633 -4.95061 -1.86037 5.65971 15.1192 0.0 0.0 0.0 2.92448 -5.66297 -0.987048 -5.78852 0.19468 0.86666 24.0054 26.0198 -3.40445 -19.2219 0.0 0.0 -0.0 0.0 -0.0 4.17607 2.05391 -0.326046 2.08032 0.0912402 0.306164 16.0238 6.03612 2.28913 -29.968 0.0 0.0 0.0 0.0 0.0 
797.291468623 606.911 -1628.89822917 2.10133778276 85.6334515228 1.95473104803 1.5441 -0.244944 -2.01434 1.54635 -0.116297 -2.02583 1.55066 0.257793 -2.01273 1.54501 -0.0632486 -2.02818 -17.5123 8.7403 4.91625 -17.6687 14.1015 7.88452 -0.0 0.0 -0.0 10.5021 0.165152 20.6866 0.580245 -5.95008 68.6069 1.74921 -40.9056 0.652405 22.1153 0.242086 -2.79717 4.88228 19.3307 40.9794 -0.0 0.0 -0.0 9.00246 -24.1163 -15.2511 -23.9231 2.58738 -54.523 0.759381 20.615 -0.138108 -55.8931 4.77687 -4.95508 -2.13488 5.83983 17.1279 0.0 0.0 0.0 2.82572 -6.05296 -1.32836 -6.84706 0.220757 1.02701 23.4377 26.3763 -3.33969 -18.7802 0.0 0.0 -0.0 0.0 -0.0 2.24973 1.44825 -0.256718 5.98796 0.292473 0.871648 12.2208 7.70819 1.78776 -27.8327 0.0 0.0 0.0 0.0 0.0 
796.787070431 606.911 -1631.25292336 1.86599030501 85.0816753336 2.1908504546 1.5441 -0.244944 -2.01434 1.54635 -0.116297 -2.02583 1.55066 0.257793 -2.01273 1.54501 -0.0632486 -2.02818 -17.5123 8.7403 4.91625 -17.6687 14.1015 7.88452 -0.0 0.0 -0.0 10.5021 0.165152 20.6866 0.580245 -5.95008 68.6069 1.74921 -40.9056 0.652405 22.1153 0.242086 -2.79717 4.88228 19.3307 40.9794 -0.0 0.0 -0.0 9.00246 -24.1163 -15.2511 -23.9231 2.58738 -54.523 0.759381 20.615 -0.138108 -55.8931 4.77687 -4.95508 -2.13488 5.83983 17.1279 0.0 0.0 0.0 2.82572 -6.05296 -1.32836 -6.84706 0.220757 1.02701 23.4377 26.3763 -3.33969 -18.7802 0.0 0.0 -0.0 0.0 -0.0 2.24973 1.44825 -0.256718 5.98796 0.292473 0.871648 12.2208 7.70819 1.78776 -27.8327 0.0 0.0 0.0 0.0 0.0 
796.258659193 606.911 -1633.8475997 1.66152960575 84.4748713627 2.39616032983 1.5441 -0.244944 -2.01434 1.54635 -0.116297 -2.02583 1.55066 0.257793 -2.01273 1.54501 -0.0632486 -2.02818 -17.5123 8.7403 4.91625 -17.6687 14.1015 7.88452 -0.0 0.0 -0.0 10.5021 0.165152 20.6866 0.580245 -5.95008 68.6069 1.74921 -40.9056 0.652405 22.1153 0.242086 -2.79717 4.88228 19.3307 40.9794 -0.0 0.0 -0.0 9.00246 -24.1163 -15.2511 -23.9231 2.58738 -54.523 0.759381 20.615 -0.138108 -55.8931 4.77687 -4.95508 -2.13488 5.83983 17.1279 0.0 0.0 0.0 2.82572 -6.05296 -1.32836 -6.84706 0.220757 1.02701 23.4377 26.3763 -3.33969 -18.7802 0.0 0.0 -0.0 0.0 -0.0 2.24973 1.44825 -0.256718 5.98796 0.292473 0.871648 12.2208 7.70819 1.78776 -27.8327 0.0 0.0 0.0 0.0 0.0 
795.615224903 606.911 -1637.21602479 1.45525050853 83.6889182882 2.60353984638 1.5441 -0.244944 -2.01434 1.54635 -0.116297 -2.02583 1.55066 0.257793 -2.01273 1.54501 -0.0632486 -2.02818 -17.5123 8.7403 4.91625 -17.6687 14.1015 7.88452 -0.0 0.0 -0.0 10.5021 0.165152 20.6866 0.580245 -5.95008 68.6069 1.74921 -40.9056 0.652405 22.1153 0.242086 -2.79717 4.88228 19.3307 40.9794 -0.0 0.0 -0.0 9.00246 -24.1163 -15.2511 -23.9231 2.58738 -54.523 0.759381 20.615 -0.138108 -55.8931 4.77687 -4.95508 -2.13488 5.83983 17.1279 0.0 0.0 0.0 2.82572 -6.05296 -1.32836 -6.84706 0.220757 1.02701 23.4377 26.3763 -3.33969 -18.7802 0.0 0.0 -0.0 0.0 -0.0 2.24973 1.44825 -0.256718 5.98796 0.292473 0.871648 12.2208 7.70819 1.78776 -27.8327 0.0 0.0 0.0 0.0 0.0 
794.891640242 606.911 -1641.3446593 1.26379077928 82.728183655 2.79634573068 1.5441 -0.244944 -2.01434 1.54635 -0.116297 -2.02583 1.55066 0.257793 -2.01273 1.54501 -0.0632486 -2.02818 -17.5123 8.7403 4.91625 -17.6687 14.1015 7.88452 -0.0 0.0 -0.0 10.5021 0.165152 20.6866 0.580245 -5.95008 68.6069 1.74921 -40.9056 0.652405 22.1153 0.242086 -2.79717 4.88228 19.3307 40.9794 -0.0 0.0 -0.0 9.00246 -24.1163 -15.2511 -23.9231 2.58738 -54.523 0.759381 20.615 -0.138108 -55.8931 4.77687 -4.95508 -2.13488 5.83983 17.1279 0.0 0.0 0.0 2.82572 -6.05296 -1.32836 -6.84706 0.220757 1.02701 23.4377 26.3763 -3.33969 -18.7802 0.0 0.0 -0.0 0.0 -0.0 2.24973 1.44825 -0.256718 5.98796 0.292473 0.871648 12.2208 7.70819 1.78776 -27.8327 0.0 0.0 0.0 0.0 0.0 
